<svg viewBox="0 0 52 19" fill="none" xmlns="http://www.w3.org/2000/svg">
<path d="M4.49999 14C3.68399 14 2.96399 13.79 2.33999 13.37C1.71599 12.95 1.22999 12.38 0.881991 11.66C0.545991 10.94 0.377991 10.136 0.377991 9.248C0.377991 8.3 0.563991 7.46 0.935991 6.728C1.30799 5.996 1.82399 5.42 2.48399 5C3.15599 4.568 3.92399 4.352 4.78799 4.352C5.45999 4.352 6.05399 4.49 6.56999 4.766C7.09799 5.03 7.51199 5.42 7.81199 5.936V4.532H10.782V13.136C10.782 14.12 10.542 14.978 10.062 15.71C9.58199 16.442 8.90999 17.006 8.04599 17.402C7.18199 17.81 6.17399 18.014 5.02199 18.014C4.02599 18.014 3.14999 17.858 2.39399 17.546C1.64999 17.234 0.989991 16.784 0.413991 16.196L2.21399 14.324C2.56199 14.648 2.97599 14.918 3.45599 15.134C3.94799 15.362 4.46999 15.476 5.02199 15.476C5.44199 15.476 5.82599 15.398 6.17399 15.242C6.53399 15.086 6.82199 14.834 7.03799 14.486C7.25399 14.15 7.36199 13.7 7.36199 13.136V12.524C7.09799 13.016 6.70199 13.388 6.17399 13.64C5.65799 13.88 5.09999 14 4.49999 14ZM5.72399 11.3C6.07199 11.3 6.37199 11.222 6.62399 11.066C6.88799 10.898 7.13399 10.652 7.36199 10.328V8.636C7.19399 8.204 6.94199 7.862 6.60599 7.61C6.28199 7.358 5.93999 7.232 5.57999 7.232C5.09999 7.232 4.69199 7.442 4.35599 7.862C4.03199 8.27 3.86999 8.762 3.86999 9.338C3.86999 9.926 4.04399 10.4 4.39199 10.76C4.73999 11.12 5.18399 11.3 5.72399 11.3Z" fill="url(#paint0_linear)"/>
<path d="M18.9443 7.448C18.2843 7.448 17.6843 7.52 17.1443 7.664C16.6043 7.808 16.2023 8.048 15.9383 8.384V14H12.5183V4.532H15.6503V6.332C15.9863 5.696 16.4063 5.21 16.9103 4.874C17.4143 4.526 17.9483 4.352 18.5123 4.352C18.7403 4.352 18.8843 4.358 18.9443 4.37V7.448Z" fill="url(#paint1_linear)"/>
<path d="M19.3791 11.138C19.3791 10.502 19.5531 9.944 19.9011 9.464C20.2491 8.972 20.7291 8.588 21.3411 8.312C21.9651 8.036 22.6731 7.898 23.4651 7.898C24.2331 7.898 24.8691 8.018 25.3731 8.258V7.97C25.3731 7.526 25.2411 7.196 24.9771 6.98C24.7251 6.764 24.3111 6.656 23.7351 6.656C23.2071 6.656 22.7091 6.746 22.2411 6.926C21.7851 7.094 21.3051 7.346 20.8011 7.682L19.8111 5.558C21.0591 4.754 22.4811 4.352 24.0771 4.352C25.5771 4.352 26.7351 4.694 27.5511 5.378C28.3791 6.05 28.7931 7.052 28.7931 8.384V10.22C28.7931 10.544 28.8411 10.772 28.9371 10.904C29.0331 11.024 29.2011 11.096 29.4411 11.12V14C29.1651 14.06 28.9011 14.102 28.6491 14.126C28.4091 14.162 28.1931 14.18 28.0011 14.18C27.3891 14.18 26.9211 14.072 26.5971 13.856C26.2851 13.628 26.0811 13.298 25.9851 12.866L25.9131 12.524C25.0491 13.628 23.9751 14.18 22.6911 14.18C22.0671 14.18 21.5031 14.048 20.9991 13.784C20.4951 13.52 20.0991 13.16 19.8111 12.704C19.5231 12.236 19.3791 11.714 19.3791 11.138ZM24.9231 11.372C25.2231 11.168 25.3731 10.946 25.3731 10.706V10.004C25.1811 9.932 24.9591 9.872 24.7071 9.824C24.4671 9.776 24.2511 9.752 24.0591 9.752C23.6511 9.752 23.3031 9.854 23.0151 10.058C22.7391 10.262 22.6011 10.52 22.6011 10.832C22.6011 11.096 22.7031 11.312 22.9071 11.48C23.1231 11.648 23.3931 11.732 23.7171 11.732C24.1611 11.732 24.5631 11.612 24.9231 11.372Z" fill="url(#paint2_linear)"/>
<path d="M31.3425 8.204H30.1725V5.63H31.3425V4.604C31.3425 3.812 31.5225 3.122 31.8825 2.534C32.2545 1.946 32.7645 1.49 33.4125 1.166C34.0605 0.842 34.8045 0.68 35.6445 0.68C36.3405 0.68 37.0125 0.8 37.6605 1.04C38.3205 1.268 39.0285 1.628 39.7845 2.12L38.4885 4.712C38.0805 4.352 37.6485 4.07 37.1925 3.866C36.7365 3.662 36.2985 3.56 35.8785 3.56C35.5305 3.56 35.2545 3.638 35.0505 3.794C34.8585 3.938 34.7625 4.166 34.7625 4.478V5.63H40.1445V14H36.7245V8.204H34.7625V14H31.3425V8.204Z" fill="url(#paint3_linear)"/>
<path d="M44.4482 4.532L45.7982 6.854L45.9782 7.232L46.1582 6.854L47.5082 4.532H50.9822L47.9402 9.212L51.0722 14H47.5982L46.1402 11.678L45.9782 11.318L45.8162 11.678L44.3582 14H40.8842L44.0162 9.302L40.9742 4.532H44.4482Z" fill="url(#paint4_linear)"/>
<defs>
<linearGradient id="paint0_linear" x1="25.5" y1="-3" x2="25.5" y2="18" gradientUnits="userSpaceOnUse">
<stop stop-color="#B794F4"/>
<stop offset="1" stop-color="#ED64A6"/>
</linearGradient>
<linearGradient id="paint1_linear" x1="25.5" y1="-3" x2="25.5" y2="18" gradientUnits="userSpaceOnUse">
<stop stop-color="#B794F4"/>
<stop offset="1" stop-color="#ED64A6"/>
</linearGradient>
<linearGradient id="paint2_linear" x1="25.5" y1="-3" x2="25.5" y2="18" gradientUnits="userSpaceOnUse">
<stop stop-color="#B794F4"/>
<stop offset="1" stop-color="#ED64A6"/>
</linearGradient>
<linearGradient id="paint3_linear" x1="25.5" y1="-3" x2="25.5" y2="18" gradientUnits="userSpaceOnUse">
<stop stop-color="#B794F4"/>
<stop offset="1" stop-color="#ED64A6"/>
</linearGradient>
<linearGradient id="paint4_linear" x1="25.5" y1="-3" x2="25.5" y2="18" gradientUnits="userSpaceOnUse">
<stop stop-color="#B794F4"/>
<stop offset="1" stop-color="#ED64A6"/>
</linearGradient>
</defs>
</svg>
