<svg viewBox="0 0 58 64" fill="none" xmlns="http://www.w3.org/2000/svg">
<path d="M57.9903 57.16C56.2636 59.2133 54.1869 60.7533 51.7603 61.78C49.3336 62.8533 46.6503 63.39 43.7103 63.39C40.7703 63.39 38.1336 63.0167 35.8003 62.27C33.4669 61.57 31.1336 60.3567 28.8003 58.63C26.4669 56.95 23.8069 54.5467 20.8203 51.42C16.7136 50.58 13.0969 48.9933 9.97027 46.66C6.84361 44.28 4.39361 41.3633 2.62027 37.91C0.893607 34.4567 0.0302734 30.6533 0.0302734 26.5C0.0302734 21.6 1.22027 17.2133 3.60027 13.34C5.98027 9.42 9.27027 6.36334 13.4703 4.17C17.6703 1.97667 22.4069 0.880005 27.6803 0.880005C32.9536 0.880005 37.6903 1.97667 41.8903 4.17C46.0903 6.36334 49.3803 9.42 51.7603 13.34C54.1403 17.2133 55.3303 21.6 55.3303 26.5C55.3303 31.8667 53.9069 36.6267 51.0603 40.78C48.2136 44.8867 44.3636 47.92 39.5103 49.88C40.2103 50.6267 40.9103 51.14 41.6103 51.42C42.3569 51.7467 43.1736 51.91 44.0603 51.91C46.4869 51.91 48.7503 50.86 50.8503 48.76L57.9903 57.16ZM27.6803 14.25C25.6269 14.25 23.7603 14.7633 22.0803 15.79C20.4469 16.77 19.1403 18.1933 18.1603 20.06C17.1803 21.88 16.6903 24.0267 16.6903 26.5C16.6903 28.9733 17.1803 31.1433 18.1603 33.01C19.1403 34.83 20.4469 36.2533 22.0803 37.28C23.7603 38.26 25.6269 38.75 27.6803 38.75C29.7336 38.75 31.5769 38.26 33.2103 37.28C34.8903 36.2533 36.2203 34.83 37.2003 33.01C38.1803 31.1433 38.6703 28.9733 38.6703 26.5C38.6703 24.0267 38.1803 21.88 37.2003 20.06C36.2203 18.1933 34.8903 16.77 33.2103 15.79C31.5769 14.7633 29.7336 14.25 27.6803 14.25Z" fill="url(#paint0_linear)"/>
<defs>
<linearGradient id="paint0_linear" x1="28" y1="-17" x2="28" y2="68" gradientUnits="userSpaceOnUse">
<stop stop-color="#B792F9"/>
<stop offset="1" stop-color="#ED64A6"/>
</linearGradient>
</defs>
</svg>
