<svg viewBox="0 0 270 320" fill="none" xmlns="http://www.w3.org/2000/svg">
<path opacity="0.3" d="M255.969 30.3726H76.1568C75.7729 30.3198 75.4205 30.1232 75.1653 29.8194C74.91 29.5155 74.7693 29.1252 74.7693 28.721C74.7693 28.3169 74.91 27.9266 75.1653 27.6227C75.4205 27.3189 75.7729 27.1223 76.1568 27.0695H255.969C256.353 27.1223 256.705 27.3189 256.96 27.6227C257.216 27.9266 257.356 28.3169 257.356 28.721C257.356 29.1252 257.216 29.5155 256.96 29.8194C256.705 30.1232 256.353 30.3198 255.969 30.3726Z" fill="#896DD6"/>
<path opacity="0.3" d="M131.377 48.5401H17.052C16.6681 48.4873 16.3157 48.2906 16.0605 47.9868C15.8052 47.6829 15.6646 47.2926 15.6646 46.8885C15.6646 46.4843 15.8052 46.094 16.0605 45.7902C16.3157 45.4863 16.6681 45.2897 17.052 45.2369H131.377C131.761 45.2897 132.113 45.4863 132.368 45.7902C132.624 46.094 132.764 46.4843 132.764 46.8885C132.764 47.2926 132.624 47.6829 132.368 47.9868C132.113 48.2906 131.761 48.4873 131.377 48.5401Z" fill="#896DD6"/>
<path opacity="0.3" d="M255.969 48.8704H141.644C141.26 48.8176 140.908 48.6209 140.653 48.317C140.397 48.0132 140.257 47.6229 140.257 47.2188C140.257 46.8147 140.397 46.4243 140.653 46.1205C140.908 45.8166 141.26 45.62 141.644 45.5672H255.969C256.353 45.62 256.705 45.8166 256.961 46.1205C257.216 46.4243 257.357 46.8147 257.357 47.2188C257.357 47.6229 257.216 48.0132 256.961 48.317C256.705 48.6209 256.353 48.8176 255.969 48.8704H255.969Z" fill="#896DD6"/>
<path opacity="0.3" d="M131.654 66.7075H17.3293C16.9455 66.6547 16.5931 66.4581 16.3379 66.1542C16.0826 65.8504 15.9419 65.46 15.9419 65.0559C15.9419 64.6518 16.0826 64.2615 16.3379 63.9576C16.5931 63.6538 16.9455 63.4572 17.3293 63.4044H131.654C132.038 63.4572 132.391 63.6538 132.646 63.9576C132.901 64.2615 133.042 64.6518 133.042 65.0559C133.042 65.46 132.901 65.8504 132.646 66.1542C132.391 66.4581 132.038 66.6547 131.654 66.7075Z" fill="#896DD6"/>
<path opacity="0.3" d="M131.932 84.875H17.6069C17.2231 84.8222 16.8707 84.6255 16.6155 84.3217C16.3602 84.0178 16.2195 83.6275 16.2195 83.2234C16.2195 82.8192 16.3602 82.4289 16.6155 82.1251C16.8707 81.8212 17.2231 81.6246 17.6069 81.5718H131.932C132.316 81.6246 132.668 81.8212 132.923 82.1251C133.179 82.4289 133.319 82.8192 133.319 83.2234C133.319 83.6275 133.179 84.0178 132.923 84.3217C132.668 84.6255 132.316 84.8222 131.932 84.875Z" fill="#896DD6"/>
<path opacity="0.3" d="M183.822 66.7075H151.079C150.695 66.6547 150.342 66.4581 150.087 66.1542C149.832 65.8504 149.691 65.46 149.691 65.0559C149.691 64.6518 149.832 64.2615 150.087 63.9576C150.342 63.6538 150.695 63.4572 151.079 63.4044H183.822C184.206 63.4572 184.558 63.6538 184.814 63.9576C185.069 64.2615 185.21 64.6518 185.21 65.0559C185.21 65.46 185.069 65.8504 184.814 66.1542C184.558 66.4581 184.206 66.6547 183.822 66.7075Z" fill="#896DD6"/>
<path opacity="0.3" d="M183.822 84.5446H151.079C150.695 84.4918 150.342 84.2952 150.087 83.9913C149.832 83.6875 149.691 83.2972 149.691 82.8931C149.691 82.489 149.832 82.0986 150.087 81.7948C150.342 81.4909 150.695 81.2943 151.079 81.2415H183.822C184.206 81.2943 184.558 81.4909 184.814 81.7948C185.069 82.0986 185.21 82.489 185.21 82.8931C185.21 83.2972 185.069 83.6875 184.814 83.9913C184.558 84.2952 184.206 84.4918 183.822 84.5446Z" fill="#896DD6"/>
<path opacity="0.3" d="M238.765 84.5446H206.021C205.637 84.4918 205.285 84.2952 205.03 83.9913C204.775 83.6875 204.634 83.2972 204.634 82.8931C204.634 82.489 204.775 82.0986 205.03 81.7948C205.285 81.4909 205.637 81.2943 206.021 81.2415H238.765C239.149 81.2943 239.501 81.4909 239.756 81.7948C240.011 82.0986 240.152 82.489 240.152 82.8931C240.152 83.2972 240.011 83.6875 239.756 83.9913C239.501 84.2952 239.149 84.4918 238.765 84.5446Z" fill="#896DD6"/>
<path opacity="0.3" d="M48.9631 30.3726H16.2195C15.8357 30.3198 15.4833 30.1232 15.228 29.8194C14.9728 29.5155 14.832 29.1252 14.832 28.721C14.832 28.3169 14.9728 27.9266 15.228 27.6227C15.4833 27.3189 15.8357 27.1223 16.2195 27.0695H48.9631C49.3469 27.1223 49.6993 27.3189 49.9545 27.6227C50.2098 27.9266 50.3505 28.3169 50.3505 28.721C50.3505 29.1252 50.2098 29.5155 49.9545 29.8194C49.6993 30.1232 49.3469 30.3198 48.9631 30.3726Z" fill="#896DD6"/>
<path opacity="0.3" d="M130.961 238.678H16.6357C16.2519 238.626 15.8995 238.429 15.6443 238.125C15.389 237.821 15.2483 237.431 15.2483 237.027C15.2483 236.623 15.389 236.232 15.6443 235.929C15.8995 235.625 16.2519 235.428 16.6357 235.375H130.961C131.345 235.428 131.697 235.625 131.952 235.929C132.207 236.232 132.348 236.623 132.348 237.027C132.348 237.431 132.207 237.821 131.952 238.125C131.697 238.429 131.345 238.626 130.961 238.678H130.961Z" fill="#896DD6"/>
<path opacity="0.3" d="M130.406 275.013H16.0805C15.6967 274.96 15.3444 274.764 15.0891 274.46C14.8338 274.156 14.6931 273.766 14.6931 273.362C14.6931 272.958 14.8338 272.567 15.0891 272.263C15.3444 271.96 15.6967 271.763 16.0805 271.71H130.406C130.789 271.763 131.142 271.96 131.397 272.263C131.652 272.567 131.793 272.958 131.793 273.362C131.793 273.766 131.652 274.156 131.397 274.46C131.142 274.764 130.789 274.96 130.406 275.013H130.406Z" fill="#896DD6"/>
<path opacity="0.3" d="M130.683 293.181H16.3582C15.9743 293.128 15.6219 292.931 15.3667 292.627C15.1114 292.324 14.9707 291.933 14.9707 291.529C14.9707 291.125 15.1114 290.735 15.3667 290.431C15.6219 290.127 15.9743 289.93 16.3582 289.878H130.683C131.067 289.93 131.419 290.127 131.675 290.431C131.93 290.735 132.071 291.125 132.071 291.529C132.071 291.933 131.93 292.324 131.675 292.627C131.419 292.931 131.067 293.128 130.683 293.181H130.683Z" fill="#896DD6"/>
<path opacity="0.3" d="M179.521 275.344H146.777C146.394 275.291 146.041 275.094 145.786 274.79C145.531 274.486 145.39 274.096 145.39 273.692C145.39 273.288 145.531 272.898 145.786 272.594C146.041 272.29 146.394 272.093 146.777 272.04H179.521C179.905 272.093 180.257 272.29 180.512 272.594C180.768 272.898 180.908 273.288 180.908 273.692C180.908 274.096 180.768 274.486 180.512 274.79C180.257 275.094 179.905 275.291 179.521 275.344Z" fill="#896DD6"/>
<path opacity="0.3" d="M179.521 293.181H146.777C146.394 293.128 146.041 292.931 145.786 292.627C145.531 292.324 145.39 291.933 145.39 291.529C145.39 291.125 145.531 290.735 145.786 290.431C146.041 290.127 146.394 289.93 146.777 289.878H179.521C179.905 289.93 180.257 290.127 180.512 290.431C180.768 290.735 180.908 291.125 180.908 291.529C180.908 291.933 180.768 292.324 180.512 292.627C180.257 292.931 179.905 293.128 179.521 293.181Z" fill="#896DD6"/>
<path opacity="0.3" d="M234.464 275.344H201.72C201.336 275.291 200.984 275.094 200.729 274.79C200.473 274.486 200.333 274.096 200.333 273.692C200.333 273.288 200.473 272.898 200.729 272.594C200.984 272.29 201.336 272.093 201.72 272.04H234.464C234.847 272.093 235.2 272.29 235.455 272.594C235.71 272.898 235.851 273.288 235.851 273.692C235.851 274.096 235.71 274.486 235.455 274.79C235.2 275.094 234.847 275.291 234.464 275.344Z" fill="#896DD6"/>
<path opacity="0.3" d="M256.108 256.846H76.2956C75.9118 256.793 75.5594 256.596 75.3042 256.293C75.0489 255.989 74.9082 255.598 74.9082 255.194C74.9082 254.79 75.0489 254.4 75.3042 254.096C75.5594 253.792 75.9118 253.595 76.2956 253.543H256.108C256.492 253.595 256.844 253.792 257.099 254.096C257.354 254.4 257.495 254.79 257.495 255.194C257.495 255.598 257.354 255.989 257.099 256.293C256.844 256.596 256.492 256.793 256.108 256.846Z" fill="#896DD6"/>
<path opacity="0.3" d="M49.1019 256.846H16.3584C15.9745 256.793 15.6222 256.596 15.3669 256.293C15.1117 255.989 14.9709 255.598 14.9709 255.194C14.9709 254.79 15.1117 254.4 15.3669 254.096C15.6222 253.792 15.9745 253.595 16.3584 253.543H49.1019C49.4857 253.595 49.8381 253.792 50.0934 254.096C50.3486 254.4 50.4893 254.79 50.4893 255.194C50.4893 255.598 50.3486 255.989 50.0934 256.293C49.8381 256.596 49.4857 256.793 49.1019 256.846Z" fill="#896DD6"/>
<path d="M103.351 114.221L58.9526 159.985L103.351 205.748L113.341 195.321L79.7641 160.274L113.618 124.938L103.351 114.221Z" fill="#664FA4"/>
<path d="M168.838 114.221L213.236 159.985L168.838 205.748L158.849 195.321L192.424 160.274L158.571 124.938L168.838 114.221Z" fill="#664FA4"/>
</svg>
