<svg  viewBox="0 0 500 454" fill="none" xmlns="http://www.w3.org/2000/svg">
<path d="M160.015 18.5837C114.178 53.7157 144.999 115.789 96.7916 149.341C64.6771 171.684 30.1918 158.609 10.1471 188.352C-1.20431 205.236 -0.485855 224.346 0.519968 235.41C10.5782 343.321 106.275 481.262 239.475 448.214C372.675 415.165 312.038 327.515 404.502 295.544C442.507 282.397 483.387 271.692 497.397 205.595C506.018 164.931 493.086 104.438 456.373 89.8535C422.319 76.3467 400.55 112.556 361.682 99.5525C322.671 86.4768 329.783 43.5856 286.461 17.1468C250.754 -4.62206 193.71 -7.28031 160.015 18.5837Z" fill="url(#paint0_linear_1331_683)"/>
<path d="M405.723 345.261C391.21 362.216 385.822 381.758 392.791 395.48C394.228 398.354 396.599 402.377 400.766 403.814C419.948 410.424 453.284 356.756 440.352 343.752C435.97 339.369 429.001 335.705 422.175 336.28C412.764 336.999 407.016 343.68 405.723 345.261Z" fill="#631EC9"/>
<path opacity="0.79" d="M93.0555 306.824C133.885 306.824 166.983 274.851 166.983 235.411C166.983 195.97 133.885 163.997 93.0555 163.997C52.2261 163.997 19.1274 195.97 19.1274 235.411C19.1274 274.851 52.2261 306.824 93.0555 306.824Z" fill="url(#paint1_radial_1331_683)"/>
<path d="M352.63 187.921C352.63 187.921 363.55 185.263 384.385 164.428C405.22 143.593 440.28 125.273 453.14 167.086C460.756 191.801 455.368 247.768 430.438 253.659C413.698 257.682 396.024 244.247 384.888 233.112C373.752 221.976 352.558 216.444 352.558 216.444V187.921H352.63Z" fill="#E470C3"/>
<path d="M352.629 187.921V216.515C352.629 216.515 373.824 222.047 384.959 233.183C388.336 236.56 392.359 240.224 396.742 243.457C399.831 239.721 405.866 231.603 407.95 225.64C417.433 197.62 412.117 165.65 387.977 160.98C386.756 162.129 385.534 163.279 384.385 164.428C363.55 185.263 352.629 187.921 352.629 187.921Z" fill="#631EC9"/>
<path opacity="0.8" d="M363.119 192.376C363.119 192.376 398.682 182.389 422.39 158.681" stroke="#442753" stroke-width="4" stroke-miterlimit="10" stroke-linecap="round" stroke-linejoin="round"/>
<path opacity="0.8" d="M364.125 199.991C364.125 199.991 415.996 193.166 435.61 184.617" stroke="#442753" stroke-width="4" stroke-miterlimit="10" stroke-linecap="round" stroke-linejoin="round"/>
<path opacity="0.8" d="M364.34 214.36C364.34 214.36 393.366 221.473 422.391 238.644" stroke="#442753" stroke-width="4" stroke-miterlimit="10" stroke-linecap="round" stroke-linejoin="round"/>
<path opacity="0.8" d="M364.34 208.613C364.34 208.613 414.775 213.067 435.61 213.067" stroke="#442753" stroke-width="4" stroke-miterlimit="10" stroke-linecap="round" stroke-linejoin="round"/>
<path d="M247.737 114.281C247.737 114.281 251.114 100.63 256.717 95.2419C262.321 89.8535 271.589 88.2729 291.059 91.8652C310.457 95.4574 324.61 102.067 324.61 109.611C324.61 113.203 310.529 125.345 307.08 125.345C303.632 125.345 257.508 112.987 247.737 114.281Z" fill="#E470C3"/>
<path d="M280.138 101.923C263.47 101.923 256.07 109.323 253.269 114.424C268.931 116.005 304.134 125.345 307.08 125.345C309.667 125.345 318.432 118.304 322.455 113.418C315.845 105.444 296.663 101.923 280.138 101.923Z" fill="#631EC9"/>
<path opacity="0.8" d="M264.404 110.545C264.404 110.545 268.068 101.924 275.325 98.3313" stroke="#442753" stroke-width="4" stroke-miterlimit="10" stroke-linecap="round" stroke-linejoin="round"/>
<path opacity="0.8" d="M292.136 101.923C283.874 104.438 277.408 113.418 277.408 113.418" stroke="#442753" stroke-width="4" stroke-miterlimit="10" stroke-linecap="round" stroke-linejoin="round"/>
<path opacity="0.8" d="M292.137 115.358C292.137 115.358 298.603 107.599 309.379 107.599" stroke="#442753" stroke-width="4" stroke-miterlimit="10" stroke-linecap="round" stroke-linejoin="round"/>
<path d="M247.737 114.281C247.737 114.281 251.114 100.63 256.717 95.2419C262.321 89.8535 271.589 88.2729 291.059 91.8652C310.457 95.4574 324.61 102.067 324.61 109.611C324.61 113.203 310.529 125.345 307.08 125.345C303.632 125.345 257.508 112.987 247.737 114.281Z" stroke="#631EC9" stroke-width="6" stroke-miterlimit="10" stroke-linecap="round" stroke-linejoin="round"/>
<path d="M352.63 187.921C352.63 187.921 363.55 185.263 384.385 164.428C405.22 143.593 440.28 125.273 453.14 167.086C460.756 191.801 455.368 247.768 430.438 253.659C413.698 257.682 396.024 244.247 384.888 233.112C373.752 221.976 352.558 216.444 352.558 216.444V187.921H352.63Z" stroke="#631EC9" stroke-width="6" stroke-miterlimit="10" stroke-linecap="round" stroke-linejoin="round"/>
<path d="M228.985 299.64C228.985 299.64 246.587 322.271 255.568 331.251C264.548 340.232 334.597 323.348 342.5 315.445C350.403 307.542 352.558 289.581 310.888 279.523C310.96 279.523 273.242 310.991 228.985 299.64Z" fill="#E470C3"/>
<path d="M247.593 322.486C274.535 321.408 324.107 317.242 346.451 301.077C344.08 293.533 334.525 285.271 310.888 279.595C310.888 279.595 275.54 309.051 233.152 300.645C232.434 301.292 231.787 301.867 231.212 302.513C234.589 306.752 241.414 315.302 247.593 322.486Z" fill="#631EC9"/>
<path opacity="0.8" d="M258.01 311.135C258.01 311.135 267.35 318.247 270.87 325.432" stroke="#442753" stroke-width="4" stroke-miterlimit="10" stroke-linecap="round" stroke-linejoin="round"/>
<path opacity="0.8" d="M275.325 310.273C275.325 310.273 283.228 316.379 286.533 322.774" stroke="#442753" stroke-width="4" stroke-miterlimit="10" stroke-linecap="round" stroke-linejoin="round"/>
<path opacity="0.8" d="M288.041 305.746C288.041 305.746 296.878 309.77 302.051 318.247" stroke="#442753" stroke-width="4" stroke-miterlimit="10" stroke-linecap="round" stroke-linejoin="round"/>
<path opacity="0.8" d="M298.962 302.01C298.962 302.01 314.84 306.537 318.073 312.931" stroke="#442753" stroke-width="4" stroke-miterlimit="10" stroke-linecap="round" stroke-linejoin="round"/>
<path opacity="0.8" d="M312.038 295.544C312.038 295.544 328.921 299.424 332.226 305.818" stroke="#442753" stroke-width="4" stroke-miterlimit="10" stroke-linecap="round" stroke-linejoin="round"/>
<path d="M228.985 299.64C228.985 299.64 246.587 322.271 255.568 331.251C264.548 340.232 334.597 323.348 342.5 315.445C350.403 307.542 352.558 289.581 310.888 279.523C310.96 279.523 273.242 310.991 228.985 299.64Z" stroke="#631EC9" stroke-width="6" stroke-miterlimit="10" stroke-linecap="round" stroke-linejoin="round"/>
<path d="M73.1543 225.64C73.1543 225.64 77.465 245.11 92.9834 243.601C104.55 242.523 107.352 218.168 90.0378 208.9C72.6514 199.704 73.1543 225.64 73.1543 225.64Z" fill="#F4E834"/>
<path d="M73.1543 225.64C73.1543 225.64 77.465 245.11 92.9834 243.601C104.55 242.523 107.352 218.168 90.0378 208.9C72.6514 199.704 73.1543 225.64 73.1543 225.64Z" fill="#F4E834" stroke="#D3A548" stroke-width="6" stroke-miterlimit="10"/>
<path d="M86.6611 231.531C90.7084 231.531 93.9893 228.25 93.9893 224.203C93.9893 220.156 90.7084 216.875 86.6611 216.875C82.6139 216.875 79.333 220.156 79.333 224.203C79.333 228.25 82.6139 231.531 86.6611 231.531Z" fill="#F4E834"/>
<path opacity="0.66" d="M86.6613 230.669C90.2324 230.669 93.1273 227.774 93.1273 224.203C93.1273 220.632 90.2324 217.737 86.6613 217.737C83.0902 217.737 80.1953 220.632 80.1953 224.203C80.1953 227.774 83.0902 230.669 86.6613 230.669Z" fill="#F99338"/>
<path d="M363.55 194.818C355.431 140.073 300.614 102.786 241.199 111.622C230.063 113.275 219.573 116.436 209.946 120.747C198.667 125.848 185.304 122.974 177.185 113.634C173.593 109.467 170.216 105.803 168.42 104.222C163.319 99.7681 157.428 95.2419 150.675 91.2904C147.298 89.2788 143.706 87.4108 139.898 85.7584C136.09 84.106 132.067 82.5972 127.9 81.4477C126.822 81.1603 125.816 80.873 124.739 80.5856C123.661 80.37 122.583 80.0827 121.506 79.8671C120.428 79.6516 119.279 79.5079 118.201 79.2924C117.123 79.0769 115.974 79.005 114.824 78.8613C110.298 78.3584 105.7 78.2866 101.03 78.7895C96.3601 79.2205 91.6902 80.2264 87.164 81.8788L86.3019 82.1662L85.8708 82.3099L85.6553 82.3817C85.0805 82.5972 85.4397 82.4535 85.296 82.5254L85.2242 82.5972L83.7873 83.2438L82.3504 83.8904L81.632 84.2497C81.4164 84.3933 81.0572 84.537 80.8417 84.6807C79.6922 85.2555 78.6145 85.9021 77.5368 86.4768C76.4592 87.1234 75.5252 87.77 74.5194 88.4167C70.6398 91.1467 67.0475 94.236 63.9582 97.6127C60.8689 101.061 58.067 104.725 55.6961 108.461C53.3252 112.269 51.2417 116.22 49.5175 120.316L49.2301 121.106L48.9427 121.896L48.368 123.333C48.2243 123.764 48.0087 124.339 47.7932 124.914L47.2903 126.494C46.9311 127.572 46.7155 128.578 46.3563 129.655C46.0689 130.733 45.8534 131.739 45.566 132.817C43.6981 141.222 43.4107 149.484 44.1291 157.244C44.9194 164.931 46.6437 172.116 48.8709 178.366C51.0981 184.688 53.8281 190.148 56.5582 194.818C59.2883 199.488 62.0184 203.296 64.3893 206.313C65.5388 207.822 66.6883 209.115 67.6223 210.265C68.1252 210.84 68.5563 211.343 68.9873 211.774C67.1194 216.875 64.6767 226.933 71.0708 233.255C76.9621 239.146 78.8301 216.946 91.5465 214.935C95.5698 214.288 96.5756 208.972 92.4805 204.877C89.032 201.428 80.8417 200.853 73.5854 205.954C73.5135 205.811 73.3699 205.739 73.298 205.595C72.4359 204.517 71.4301 203.224 70.4242 201.787C68.3407 198.914 65.898 195.249 63.5272 190.867C61.1563 186.484 58.8573 181.383 57.0611 175.564C55.1932 169.745 53.9 163.279 53.4689 156.453C53.0379 149.556 53.6126 142.3 55.4806 135.116C55.7679 134.253 55.9835 133.319 56.2709 132.457C56.5582 131.595 56.8456 130.661 57.133 129.799L57.6359 128.506C57.7796 128.075 57.9233 127.644 58.1388 127.213L58.7136 125.776L59.0009 125.201L59.2883 124.554C60.8689 121.106 62.8087 117.729 64.964 114.496C67.1194 111.263 69.6339 108.246 72.2922 105.516C75.0223 102.786 77.9679 100.343 81.1291 98.3312C81.9194 97.8283 82.7096 97.3254 83.4999 96.8943C84.2902 96.5351 85.0087 96.104 85.799 95.7448C86.0145 95.6729 86.1582 95.5292 86.3737 95.4574L87.0922 95.17L88.6009 94.5953L90.0378 94.0205L90.1815 93.9487L90.5407 93.8768L91.1873 93.6613C94.7077 92.5118 98.3717 91.8652 102.036 91.6497C105.7 91.4341 109.436 91.5778 113.1 92.1526C114.034 92.2962 114.896 92.4399 115.83 92.5836C116.764 92.7992 117.626 92.9428 118.56 93.1584C119.422 93.3739 120.356 93.5894 121.218 93.8768C122.08 94.0924 122.943 94.3797 123.805 94.6671C127.253 95.8166 130.63 97.1817 133.791 98.6904C136.952 100.271 139.97 101.923 142.844 103.791C148.591 107.455 153.548 111.551 157.931 115.646C159.296 116.867 161.667 119.741 164.397 123.118C172.3 132.96 172.731 146.754 165.403 157.028C151.177 177.001 144.352 201.572 148.088 226.789C156.207 281.535 211.024 318.822 270.439 309.985C329.855 301.148 371.668 249.636 363.55 194.818Z" fill="#E470C3"/>
<path d="M171.294 273.344C171.294 273.344 171.941 276.218 182.861 272.123C193.781 268.028 202.906 254.449 202.906 254.449L177.329 264.077L163.894 266.447L171.294 273.344Z" fill="#631EC9"/>
<path d="M168.923 107.599C168.923 107.599 177.832 126.063 192.848 129.655C207.719 133.248 216.053 121.25 229.057 115.286C217.778 117.514 204.199 123.908 204.199 123.908C204.199 123.908 186.813 126.207 175.389 113.347C163.966 100.558 168.923 107.599 168.923 107.599Z" fill="#C73DB6"/>
<g opacity="0.76">
<path d="M363.55 194.818C356.869 150.059 319.007 117.011 272.882 111.263C303.775 124.914 344.511 133.894 344.871 192.376C345.373 264.364 294.22 302.082 239.403 305.746C228.482 306.465 217.347 302.873 207.073 301.651C226.04 310.057 247.88 313.29 270.511 309.985C329.999 301.148 371.669 249.636 363.55 194.818Z" fill="#631EC9"/>
</g>
<path d="M226.183 225.64C238.087 225.64 247.737 215.507 247.737 203.009C247.737 190.51 238.087 180.378 226.183 180.378C214.28 180.378 204.63 190.51 204.63 203.009C204.63 215.507 214.28 225.64 226.183 225.64Z" fill="#442753"/>
<path d="M220.436 206.601C225.356 206.601 229.344 202.419 229.344 197.261C229.344 192.103 225.356 187.921 220.436 187.921C215.515 187.921 211.527 192.103 211.527 197.261C211.527 202.419 215.515 206.601 220.436 206.601Z" fill="white"/>
<path d="M234.23 216.515C237.127 216.515 239.475 214.071 239.475 211.055C239.475 208.04 237.127 205.595 234.23 205.595C231.333 205.595 228.985 208.04 228.985 211.055C228.985 214.071 231.333 216.515 234.23 216.515Z" fill="white"/>
<path d="M295.369 207.822C295.01 206.96 292.999 202.506 288.257 199.991C280.067 195.609 270.439 200.422 265.554 202.793C262.105 204.517 257.938 206.529 257.723 209.618C257.507 212.923 261.674 214.432 262.034 217.593C261.674 220.826 257.507 222.335 257.723 225.64C257.938 228.729 262.105 230.813 265.554 232.465C270.368 234.836 280.067 239.649 288.257 235.267C292.999 232.752 295.01 228.298 295.369 227.436C295.944 226.071 296.878 221.832 296.878 217.593C296.878 213.354 295.944 209.187 295.369 207.822Z" fill="#C73DB6"/>
<path opacity="0.8" d="M266.704 212.277C266.704 212.277 279.276 209.187 287.251 209.187" stroke="#442753" stroke-width="4" stroke-miterlimit="10" stroke-linecap="round" stroke-linejoin="round"/>
<path opacity="0.8" d="M266.704 218.814C266.704 218.814 278.989 217.09 284.377 219.605" stroke="#442753" stroke-width="4" stroke-miterlimit="10" stroke-linecap="round" stroke-linejoin="round"/>
<path d="M295.369 207.822C295.01 206.96 292.999 202.506 288.257 199.991C280.067 195.609 270.439 200.422 265.554 202.793C262.105 204.517 257.938 206.529 257.723 209.618C257.507 212.923 261.674 214.432 262.034 217.593C261.674 220.826 257.507 222.335 257.723 225.64C257.938 228.729 262.105 230.813 265.554 232.465C270.368 234.836 280.067 239.649 288.257 235.267C292.999 232.752 295.01 228.298 295.369 227.436C295.944 226.071 296.878 221.832 296.878 217.593C296.878 213.354 295.944 209.187 295.369 207.822Z" stroke="#B129A1" stroke-width="6" stroke-miterlimit="10" stroke-linecap="round" stroke-linejoin="round"/>
<path d="M87.164 81.8788C91.6902 80.2264 96.3601 79.2205 101.03 78.7895C105.7 78.2866 110.298 78.3584 114.824 78.8613C115.974 79.005 117.123 79.0769 118.201 79.2924C119.279 79.5079 120.428 79.6516 121.506 79.8671C122.583 80.0827 123.661 80.37 124.739 80.5856C125.816 80.873 126.822 81.1603 127.9 81.4477C132.067 82.5972 136.09 84.106 139.898 85.7584C143.706 87.4108 147.298 89.2788 150.675 91.2904C157.428 95.2419 163.319 99.7681 168.42 104.222C170.216 105.803 173.593 109.467 177.185 113.634C185.304 122.974 198.667 125.848 209.946 120.747C219.573 116.436 230.063 113.275 241.199 111.622C300.614 102.786 355.431 140.073 363.55 194.818C371.668 249.636 329.855 301.148 270.439 309.985C211.024 318.822 156.207 281.535 148.088 226.789C144.352 201.572 151.177 177.001 165.403 157.028C172.731 146.754 172.3 132.96 164.397 123.118C161.667 119.741 159.296 116.867 157.931 115.646C153.548 111.551 148.591 107.455 142.844 103.791C139.97 101.923 136.952 100.271 133.791 98.6904C130.63 97.1817 127.253 95.8166 123.805 94.6671C122.943 94.3797 122.08 94.0924 121.218 93.8768C120.356 93.5894 119.422 93.3739 118.56 93.1584C117.626 92.9428 116.764 92.7992 115.83 92.5836C114.896 92.4399 114.034 92.2962 113.1 92.1526C109.436 91.5778 105.7 91.4341 102.036 91.6497C98.3717 91.8652 94.7077 92.5118 91.1873 93.6613L90.5407 93.8768L90.1815 93.9487L90.0378 94.0205L88.6009 94.5953L87.0922 95.17L86.3737 95.4574C86.1582 95.5293 86.0145 95.6729 85.799 95.7448C85.0087 96.104 84.2902 96.5351 83.4999 96.8943C82.7096 97.3254 81.9194 97.8283 81.1291 98.3312C77.9679 100.343 75.0223 102.786 72.2922 105.516C69.6339 108.246 67.1194 111.263 64.964 114.496C62.8087 117.729 60.8689 121.106 59.2883 124.554L59.0009 125.201L58.7136 125.776L58.1388 127.213C57.9233 127.644 57.7796 128.075 57.6359 128.506L57.133 129.799C56.8456 130.661 56.5582 131.595 56.2709 132.457C55.9835 133.319 55.7679 134.253 55.4806 135.116C53.6126 142.3 53.0379 149.556 53.4689 156.453C53.9 163.279 55.1932 169.745 57.0611 175.564C58.8573 181.383 61.1563 186.484 63.5272 190.867C65.898 195.249 68.3407 198.914 70.4242 201.787C71.4301 203.224 72.4359 204.517 73.298 205.595C73.3699 205.739 73.5135 205.811 73.5854 205.954C80.8417 200.853 89.032 201.428 92.4805 204.877C96.5756 208.972 95.5698 214.288 91.5465 214.935C78.8301 216.946 76.9621 239.146 71.0708 233.255C64.6767 226.933 67.1194 216.875 68.9873 211.774C68.5563 211.343 68.1252 210.84 67.6223 210.265C66.6883 209.115 65.5388 207.822 64.3893 206.314C62.0184 203.296 59.2883 199.488 56.5582 194.818C53.8281 190.148 51.0981 184.688 48.8709 178.366C46.6437 172.116 44.9194 164.931 44.1291 157.244C43.4107 149.484 43.6981 141.222 45.566 132.817C45.8534 131.739 46.0689 130.733 46.3563 129.655C46.7155 128.578 46.9311 127.572 47.2903 126.494L47.7932 124.914C48.0087 124.339 48.2243 123.764 48.368 123.333L48.9427 121.896L49.2301 121.106L49.5175 120.316C51.2417 116.22 53.3252 112.269 55.6961 108.461C58.067 104.725 60.8689 101.061 63.9582 97.6127C67.0475 94.236 70.6398 91.1467 74.5194 88.4167C75.5252 87.7701 76.4592 87.1234 77.5368 86.4768C78.6145 85.9021 79.6922 85.2555 80.8417 84.6807C81.0572 84.537 81.4164 84.3933 81.632 84.2497L82.3504 83.8904L87.164 81.8788ZM87.164 81.8788L86.3019 82.1662L85.8708 82.3099L85.6553 82.3817C85.0805 82.5972 85.4397 82.4535 85.296 82.5254L85.2242 82.5972L87.164 81.8788Z" stroke="#631EC9" stroke-width="6" stroke-miterlimit="10" stroke-linecap="round" stroke-linejoin="round"/>
<path d="M185.807 261.275C181.352 262.999 176.826 264.364 172.372 265.298C163.607 256.748 158.434 243.816 159.368 229.663C160.015 220.539 163.032 212.277 167.774 205.595C167.199 208.325 166.768 211.199 166.624 214.073C165.259 232.752 172.947 249.995 185.807 261.275Z" fill="white"/>
<path d="M185.807 261.275C181.352 262.999 176.826 264.364 172.372 265.298C163.607 256.748 158.434 243.816 159.368 229.663C160.015 220.539 163.032 212.277 167.774 205.595C167.199 208.325 166.768 211.199 166.624 214.073C165.259 232.752 172.947 249.995 185.807 261.275Z" stroke="white" stroke-width="3" stroke-miterlimit="10" stroke-linecap="round" stroke-linejoin="round"/>
<path d="M198.954 254.952C196.583 256.317 194.14 257.611 191.626 258.76C191.051 259.047 190.405 259.335 189.83 259.55C185.519 253.515 182.861 245.828 182.861 237.422C182.861 230.022 184.872 223.197 188.321 217.593C188.034 219.82 187.818 222.119 187.818 224.49C187.818 236.201 192.057 246.906 198.954 254.952Z" fill="white"/>
<path d="M198.954 254.952C196.583 256.317 194.14 257.611 191.626 258.76C191.051 259.047 190.405 259.335 189.83 259.55C185.519 253.515 182.861 245.828 182.861 237.422C182.861 230.022 184.872 223.197 188.321 217.593C188.034 219.82 187.818 222.119 187.818 224.49C187.818 236.201 192.057 246.906 198.954 254.952Z" stroke="white" stroke-width="3" stroke-miterlimit="10" stroke-linecap="round" stroke-linejoin="round"/>
<path opacity="0.3" d="M244.791 240.583C244.791 240.583 244.791 255.743 230.781 264.364" stroke="#212121" stroke-width="6" stroke-miterlimit="10" stroke-linecap="round" stroke-linejoin="round"/>
<path opacity="0.3" d="M256.789 246.546C256.789 246.546 262.249 257.467 256.43 269.465" stroke="#212121" stroke-width="6" stroke-miterlimit="10" stroke-linecap="round" stroke-linejoin="round"/>
<path d="M207.288 249.564C202.546 253.084 197.302 256.245 191.626 258.832C183.076 262.783 174.311 265.298 165.69 266.447" stroke="#C73DB6" stroke-width="6" stroke-miterlimit="10" stroke-linecap="round" stroke-linejoin="round"/>
<path opacity="0.8" d="M266.704 224.49C266.704 224.49 276.331 225.424 278.342 227.436" stroke="#442753" stroke-width="4" stroke-miterlimit="10" stroke-linecap="round" stroke-linejoin="round"/>
<path d="M374.111 27.2051C374.111 27.2051 368.651 47.3216 389.342 47.3216C410.033 47.3216 397.101 18.5838 374.111 27.2051Z" fill="#631EC9"/>
<defs>
<linearGradient id="paint0_linear_1331_683" x1="249.983" y1="0" x2="249.983" y2="453.204" gradientUnits="userSpaceOnUse">
<stop stop-color="#2A0266"/>
<stop offset="1" stop-color="#631EC9"/>
</linearGradient>
<radialGradient id="paint1_radial_1331_683" cx="0" cy="0" r="1" gradientUnits="userSpaceOnUse" gradientTransform="translate(93.0678 235.434) scale(51.2875)">
<stop stop-color="#FFFF00"/>
<stop offset="1" stop-color="#FFFF00" stop-opacity="0"/>
</radialGradient>
</defs>
</svg>
