<svg viewBox="0 0 1000 1000" fill="none" xmlns="http://www.w3.org/2000/svg">
<path d="M365 229C301.2 277.9 344.1 364.3 277 411C232.3 442.1 184.3 423.9 156.4 465.3C140.6 488.8 141.6 515.4 143 530.8C157 681 290.2 873 475.6 827C661 781 576.6 659 705.3 614.5C758.2 596.2 815.1 581.3 834.6 489.3C846.6 432.7 828.6 348.5 777.5 328.2C730.1 309.4 699.8 359.8 645.7 341.7C591.4 323.5 601.3 263.8 541 227C491.3 196.7 411.9 193 365 229Z" fill="#631EC9"/>
<path d="M707 683.7C686.8 707.3 679.3 734.5 689 753.6C691 757.6 694.3 763.2 700.1 765.2C726.8 774.4 773.2 699.7 755.2 681.6C749.1 675.5 739.4 670.4 729.9 671.2C716.8 672.2 708.8 681.5 707 683.7Z" fill="#631EC9"/>
<path opacity="0.79" d="M271.8 630.2C328.63 630.2 374.7 585.697 374.7 530.8C374.7 475.903 328.63 431.4 271.8 431.4C214.97 431.4 168.9 475.903 168.9 530.8C168.9 585.697 214.97 630.2 271.8 630.2Z" fill="url(#paint0_radial_1331_523)"/>
<path d="M633.1 464.7C633.1 464.7 648.3 461 677.3 432C706.3 403 755.1 377.5 773 435.7C783.6 470.1 776.1 548 741.4 556.2C718.1 561.8 693.5 543.1 678 527.6C662.5 512.1 633 504.4 633 504.4V464.7H633.1Z" fill="#C73DB6"/>
<path d="M633.1 464.7V504.5C633.1 504.5 662.6 512.2 678.1 527.7C682.8 532.4 688.4 537.5 694.5 542C698.8 536.8 707.2 525.5 710.1 517.2C723.3 478.2 715.9 433.7 682.3 427.2C680.6 428.8 678.9 430.4 677.3 432C648.3 461 633.1 464.7 633.1 464.7Z" fill="#B129A1"/>
<path opacity="0.8" d="M647.7 470.9C647.7 470.9 697.2 457 730.2 424" stroke="#442753" stroke-width="4" stroke-miterlimit="10" stroke-linecap="round" stroke-linejoin="round"/>
<path opacity="0.8" d="M649.1 481.5C649.1 481.5 721.3 472 748.6 460.1" stroke="#442753" stroke-width="4" stroke-miterlimit="10" stroke-linecap="round" stroke-linejoin="round"/>
<path opacity="0.8" d="M649.4 501.5C649.4 501.5 689.8 511.4 730.2 535.3" stroke="#442753" stroke-width="4" stroke-miterlimit="10" stroke-linecap="round" stroke-linejoin="round"/>
<path opacity="0.8" d="M649.4 493.5C649.4 493.5 719.6 499.7 748.6 499.7" stroke="#442753" stroke-width="4" stroke-miterlimit="10" stroke-linecap="round" stroke-linejoin="round"/>
<path d="M487.1 362.2C487.1 362.2 491.8 343.2 499.6 335.7C507.4 328.2 520.3 326 547.4 331C574.4 336 594.1 345.2 594.1 355.7C594.1 360.7 574.5 377.6 569.7 377.6C564.9 377.6 500.7 360.4 487.1 362.2Z" fill="#C73DB6"/>
<path d="M532.2 345C509 345 498.7 355.3 494.8 362.4C516.6 364.6 565.6 377.6 569.7 377.6C573.3 377.6 585.5 367.8 591.1 361C581.9 349.9 555.2 345 532.2 345Z" fill="#B129A1"/>
<path opacity="0.8" d="M510.3 357C510.3 357 515.4 345 525.5 340" stroke="#442753" stroke-width="4" stroke-miterlimit="10" stroke-linecap="round" stroke-linejoin="round"/>
<path opacity="0.8" d="M548.9 345C537.4 348.5 528.4 361 528.4 361" stroke="#442753" stroke-width="4" stroke-miterlimit="10" stroke-linecap="round" stroke-linejoin="round"/>
<path opacity="0.8" d="M548.9 363.7C548.9 363.7 557.9 352.9 572.9 352.9" stroke="#442753" stroke-width="4" stroke-miterlimit="10" stroke-linecap="round" stroke-linejoin="round"/>
<path d="M487.1 362.2C487.1 362.2 491.8 343.2 499.6 335.7C507.4 328.2 520.3 326 547.4 331C574.4 336 594.1 345.2 594.1 355.7C594.1 360.7 574.5 377.6 569.7 377.6C564.9 377.6 500.7 360.4 487.1 362.2Z" stroke="#C53CB7" stroke-width="6" stroke-miterlimit="10" stroke-linecap="round" stroke-linejoin="round"/>
<path d="M633.1 464.7C633.1 464.7 648.3 461 677.3 432C706.3 403 755.1 377.5 773 435.7C783.6 470.1 776.1 548 741.4 556.2C718.1 561.8 693.5 543.1 678 527.6C662.5 512.1 633 504.4 633 504.4V464.7H633.1Z" stroke="#C53CB7" stroke-width="6" stroke-miterlimit="10" stroke-linecap="round" stroke-linejoin="round"/>
<path d="M461 620.2C461 620.2 485.5 651.7 498 664.2C510.5 676.7 608 653.2 619 642.2C630 631.2 633 606.2 575 592.2C575.1 592.2 522.6 636 461 620.2Z" fill="#C73DB6"/>
<path d="M486.9 652C524.4 650.5 593.4 644.7 624.5 622.2C621.2 611.7 607.9 600.2 575 592.3C575 592.3 525.8 633.3 466.8 621.6C465.8 622.5 464.9 623.3 464.1 624.2C468.8 630.1 478.3 642 486.9 652Z" fill="#B129A1"/>
<path opacity="0.8" d="M501.4 636.2C501.4 636.2 514.4 646.1 519.3 656.1" stroke="#442753" stroke-width="4" stroke-miterlimit="10" stroke-linecap="round" stroke-linejoin="round"/>
<path opacity="0.8" d="M525.5 635C525.5 635 536.5 643.5 541.1 652.4" stroke="#442753" stroke-width="4" stroke-miterlimit="10" stroke-linecap="round" stroke-linejoin="round"/>
<path opacity="0.8" d="M543.2 628.7C543.2 628.7 555.5 634.3 562.7 646.1" stroke="#442753" stroke-width="4" stroke-miterlimit="10" stroke-linecap="round" stroke-linejoin="round"/>
<path opacity="0.8" d="M558.4 623.5C558.4 623.5 580.5 629.8 585 638.7" stroke="#442753" stroke-width="4" stroke-miterlimit="10" stroke-linecap="round" stroke-linejoin="round"/>
<path opacity="0.8" d="M576.6 614.5C576.6 614.5 600.1 619.9 604.7 628.8" stroke="#442753" stroke-width="4" stroke-miterlimit="10" stroke-linecap="round" stroke-linejoin="round"/>
<path d="M461 620.2C461 620.2 485.5 651.7 498 664.2C510.5 676.7 608 653.2 619 642.2C630 631.2 633 606.2 575 592.2C575.1 592.2 522.6 636 461 620.2Z" stroke="#C53CB7" stroke-width="6" stroke-miterlimit="10" stroke-linecap="round" stroke-linejoin="round"/>
<path d="M244.1 517.2C244.1 517.2 250.1 544.3 271.7 542.2C287.8 540.7 291.7 506.8 267.6 493.9C243.4 481.1 244.1 517.2 244.1 517.2Z" fill="#F4E834"/>
<path d="M244.1 517.2C244.1 517.2 250.1 544.3 271.7 542.2C287.8 540.7 291.7 506.8 267.6 493.9C243.4 481.1 244.1 517.2 244.1 517.2Z" fill="#F4E834" stroke="#D3A548" stroke-width="6" stroke-miterlimit="10"/>
<path d="M262.9 525.4C268.533 525.4 273.1 520.833 273.1 515.2C273.1 509.567 268.533 505 262.9 505C257.266 505 252.7 509.567 252.7 515.2C252.7 520.833 257.266 525.4 262.9 525.4Z" fill="#F4E834"/>
<path opacity="0.66" d="M262.9 524.2C267.87 524.2 271.9 520.171 271.9 515.2C271.9 510.229 267.87 506.2 262.9 506.2C257.929 506.2 253.9 510.229 253.9 515.2C253.9 520.171 257.929 524.2 262.9 524.2Z" fill="#F99338"/>
<path d="M648.3 474.3C637 398.1 560.7 346.2 478 358.5C462.5 360.8 447.9 365.2 434.5 371.2C418.8 378.3 400.2 374.3 388.9 361.3C383.9 355.5 379.2 350.4 376.7 348.2C369.6 342 361.4 335.7 352 330.2C347.3 327.4 342.3 324.8 337 322.5C331.7 320.2 326.1 318.1 320.3 316.5C318.8 316.1 317.4 315.7 315.9 315.3C314.4 315 312.9 314.6 311.4 314.3C309.9 314 308.3 313.8 306.8 313.5C305.3 313.2 303.7 313.1 302.1 312.9C295.8 312.2 289.4 312.1 282.9 312.8C276.4 313.4 269.9 314.8 263.6 317.1L262.4 317.5L261.8 317.7L261.5 317.8C260.7 318.1 261.2 317.9 261 318L260.9 318.1L258.9 319L256.9 319.9L255.9 320.4C255.6 320.6 255.1 320.8 254.8 321C253.2 321.8 251.7 322.7 250.2 323.5C248.7 324.4 247.4 325.3 246 326.2C240.6 330 235.6 334.3 231.3 339C227 343.8 223.1 348.9 219.8 354.1C216.5 359.4 213.6 364.9 211.2 370.6L210.8 371.7L210.4 372.8L209.6 374.8C209.4 375.4 209.1 376.2 208.8 377L208.1 379.2C207.6 380.7 207.3 382.1 206.8 383.6C206.4 385.1 206.1 386.5 205.7 388C203.1 399.7 202.7 411.2 203.7 422C204.8 432.7 207.2 442.7 210.3 451.4C213.4 460.2 217.2 467.8 221 474.3C224.8 480.8 228.6 486.1 231.9 490.3C233.5 492.4 235.1 494.2 236.4 495.8C237.1 496.6 237.7 497.3 238.3 497.9C235.7 505 232.3 519 241.2 527.8C249.4 536 252 505.1 269.7 502.3C275.3 501.4 276.7 494 271 488.3C266.2 483.5 254.8 482.7 244.7 489.8C244.6 489.6 244.4 489.5 244.3 489.3C243.1 487.8 241.7 486 240.3 484C237.4 480 234 474.9 230.7 468.8C227.4 462.7 224.2 455.6 221.7 447.5C219.1 439.4 217.3 430.4 216.7 420.9C216.1 411.3 216.9 401.2 219.5 391.2C219.9 390 220.2 388.7 220.6 387.5C221 386.3 221.4 385 221.8 383.8L222.5 382C222.7 381.4 222.9 380.8 223.2 380.2L224 378.2L224.4 377.4L224.8 376.5C227 371.7 229.7 367 232.7 362.5C235.7 358 239.2 353.8 242.9 350C246.7 346.2 250.8 342.8 255.2 340C256.3 339.3 257.4 338.6 258.5 338C259.6 337.5 260.6 336.9 261.7 336.4C262 336.3 262.2 336.1 262.5 336L263.5 335.6L265.6 334.8L267.6 334L267.8 333.9L268.3 333.8L269.2 333.5C274.1 331.9 279.2 331 284.3 330.7C289.4 330.4 294.6 330.6 299.7 331.4C301 331.6 302.2 331.8 303.5 332C304.8 332.3 306 332.5 307.3 332.8C308.5 333.1 309.8 333.4 311 333.8C312.2 334.1 313.4 334.5 314.6 334.9C319.4 336.5 324.1 338.4 328.5 340.5C332.9 342.7 337.1 345 341.1 347.6C349.1 352.7 356 358.4 362.1 364.1C364 365.8 367.3 369.8 371.1 374.5C382.1 388.2 382.7 407.4 372.5 421.7C352.7 449.5 343.2 483.7 348.4 518.8C359.7 595 436 646.9 518.7 634.6C601.4 622.3 659.6 550.6 648.3 474.3Z" fill="#EA519B"/>
<path d="M380.7 583.6C380.7 583.6 381.6 587.6 396.8 581.9C412 576.2 424.7 557.3 424.7 557.3L389.1 570.7L370.4 574L380.7 583.6Z" fill="#B129A1"/>
<path d="M377.4 352.9C377.4 352.9 389.8 378.6 410.7 383.6C431.4 388.6 443 371.9 461.1 363.6C445.4 366.7 426.5 375.6 426.5 375.6C426.5 375.6 402.3 378.8 386.4 360.9C370.5 343.1 377.4 352.9 377.4 352.9Z" fill="#C73DB6"/>
<g opacity="0.76">
<path d="M648.3 474.3C639 412 586.3 366 522.1 358C565.1 377 621.8 389.5 622.3 470.9C623 571.1 551.8 623.6 475.5 628.7C460.3 629.7 444.8 624.7 430.5 623C456.9 634.7 487.3 639.2 518.8 634.6C601.6 622.3 659.6 550.6 648.3 474.3Z" fill="#B129A1"/>
</g>
<path d="M457.1 517.2C473.669 517.2 487.1 503.097 487.1 485.7C487.1 468.303 473.669 454.2 457.1 454.2C440.532 454.2 427.1 468.303 427.1 485.7C427.1 503.097 440.532 517.2 457.1 517.2Z" fill="#442753"/>
<path d="M449.1 490.7C455.948 490.7 461.5 484.88 461.5 477.7C461.5 470.52 455.948 464.7 449.1 464.7C442.251 464.7 436.7 470.52 436.7 477.7C436.7 484.88 442.251 490.7 449.1 490.7Z" fill="white"/>
<path d="M468.3 504.5C472.332 504.5 475.6 501.097 475.6 496.9C475.6 492.703 472.332 489.3 468.3 489.3C464.268 489.3 461 492.703 461 496.9C461 501.097 464.268 504.5 468.3 504.5Z" fill="white"/>
<path d="M553.4 492.4C552.9 491.2 550.1 485 543.5 481.5C532.1 475.4 518.7 482.1 511.9 485.4C507.1 487.8 501.3 490.6 501 494.9C500.7 499.5 506.5 501.6 507 506C506.5 510.5 500.7 512.6 501 517.2C501.3 521.5 507.1 524.4 511.9 526.7C518.6 530 532.1 536.7 543.5 530.6C550.1 527.1 552.9 520.9 553.4 519.7C554.2 517.8 555.5 511.9 555.5 506C555.5 500.1 554.2 494.3 553.4 492.4Z" fill="#C73DB6"/>
<path opacity="0.8" d="M513.5 498.6C513.5 498.6 531 494.3 542.1 494.3" stroke="#442753" stroke-width="4" stroke-miterlimit="10" stroke-linecap="round" stroke-linejoin="round"/>
<path opacity="0.8" d="M513.5 507.7C513.5 507.7 530.6 505.3 538.1 508.8" stroke="#442753" stroke-width="4" stroke-miterlimit="10" stroke-linecap="round" stroke-linejoin="round"/>
<path d="M553.4 492.4C552.9 491.2 550.1 485 543.5 481.5C532.1 475.4 518.7 482.1 511.9 485.4C507.1 487.8 501.3 490.6 501 494.9C500.7 499.5 506.5 501.6 507 506C506.5 510.5 500.7 512.6 501 517.2C501.3 521.5 507.1 524.4 511.9 526.7C518.6 530 532.1 536.7 543.5 530.6C550.1 527.1 552.9 520.9 553.4 519.7C554.2 517.8 555.5 511.9 555.5 506C555.5 500.1 554.2 494.3 553.4 492.4Z" stroke="#B129A1" stroke-width="6" stroke-miterlimit="10" stroke-linecap="round" stroke-linejoin="round"/>
<path d="M648.3 474.3C637 398.1 560.7 346.2 478 358.5C462.5 360.8 447.9 365.2 434.5 371.2C418.8 378.3 400.2 374.3 388.9 361.3C383.9 355.5 379.2 350.4 376.7 348.2C369.6 342 361.4 335.7 352 330.2C347.3 327.4 342.3 324.8 337 322.5C331.7 320.2 326.1 318.1 320.3 316.5C318.8 316.1 317.4 315.7 315.9 315.3C314.4 315 312.9 314.6 311.4 314.3C309.9 314 308.3 313.8 306.8 313.5C305.3 313.2 303.7 313.1 302.1 312.9C295.8 312.2 289.4 312.1 282.9 312.8C276.4 313.4 269.9 314.8 263.6 317.1L262.4 317.5L261.8 317.7L261.5 317.8C260.7 318.1 261.2 317.9 261 318L260.9 318.1L258.9 319L256.9 319.9L255.9 320.4C255.6 320.6 255.1 320.8 254.8 321C253.2 321.8 251.7 322.7 250.2 323.5C248.7 324.4 247.4 325.3 246 326.2C240.6 330 235.6 334.3 231.3 339C227 343.8 223.1 348.9 219.8 354.1C216.5 359.4 213.6 364.9 211.2 370.6L210.8 371.7L210.4 372.8L209.6 374.8C209.4 375.4 209.1 376.2 208.8 377L208.1 379.2C207.6 380.7 207.3 382.1 206.8 383.6C206.4 385.1 206.1 386.5 205.7 388C203.1 399.7 202.7 411.2 203.7 422C204.8 432.7 207.2 442.7 210.3 451.4C213.4 460.2 217.2 467.8 221 474.3C224.8 480.8 228.6 486.1 231.9 490.3C233.5 492.4 235.1 494.2 236.4 495.8C237.1 496.6 237.7 497.3 238.3 497.9C235.7 505 232.3 519 241.2 527.8C249.4 536 252 505.1 269.7 502.3C275.3 501.4 276.7 494 271 488.3C266.2 483.5 254.8 482.7 244.7 489.8C244.6 489.6 244.4 489.5 244.3 489.3C243.1 487.8 241.7 486 240.3 484C237.4 480 234 474.9 230.7 468.8C227.4 462.7 224.2 455.6 221.7 447.5C219.1 439.4 217.3 430.4 216.7 420.9C216.1 411.3 216.9 401.2 219.5 391.2C219.9 390 220.2 388.7 220.6 387.5C221 386.3 221.4 385 221.8 383.8L222.5 382C222.7 381.4 222.9 380.8 223.2 380.2L224 378.2L224.4 377.4L224.8 376.5C227 371.7 229.7 367 232.7 362.5C235.7 358 239.2 353.8 242.9 350C246.7 346.2 250.8 342.8 255.2 340C256.3 339.3 257.4 338.6 258.5 338C259.6 337.5 260.6 336.9 261.7 336.4C262 336.3 262.2 336.1 262.5 336L263.5 335.6L265.6 334.8L267.6 334L267.8 333.9L268.3 333.8L269.2 333.5C274.1 331.9 279.2 331 284.3 330.7C289.4 330.4 294.6 330.6 299.7 331.4C301 331.6 302.2 331.8 303.5 332C304.8 332.3 306 332.5 307.3 332.8C308.5 333.1 309.8 333.4 311 333.8C312.2 334.1 313.4 334.5 314.6 334.9C319.4 336.5 324.1 338.4 328.5 340.5C332.9 342.7 337.1 345 341.1 347.6C349.1 352.7 356 358.4 362.1 364.1C364 365.8 367.3 369.8 371.1 374.5C382.1 388.2 382.7 407.4 372.5 421.7C352.7 449.5 343.2 483.7 348.4 518.8C359.7 595 436 646.9 518.7 634.6C601.4 622.3 659.6 550.6 648.3 474.3Z" stroke="#B129A1" stroke-width="6" stroke-miterlimit="10" stroke-linecap="round" stroke-linejoin="round"/>
<path d="M400.9 566.8C394.7 569.2 388.4 571.1 382.2 572.4C370 560.5 362.8 542.5 364.1 522.8C365 510.1 369.2 498.6 375.8 489.3C375 493.1 374.4 497.1 374.2 501.1C372.3 527.1 383 551.1 400.9 566.8Z" fill="white"/>
<path d="M400.9 566.8C394.7 569.2 388.4 571.1 382.2 572.4C370 560.5 362.8 542.5 364.1 522.8C365 510.1 369.2 498.6 375.8 489.3C375 493.1 374.4 497.1 374.2 501.1C372.3 527.1 383 551.1 400.9 566.8Z" stroke="white" stroke-width="3" stroke-miterlimit="10" stroke-linecap="round" stroke-linejoin="round"/>
<path d="M419.2 558C415.9 559.9 412.5 561.7 409 563.3C408.2 563.7 407.3 564.1 406.5 564.4C400.5 556 396.8 545.3 396.8 533.6C396.8 523.3 399.6 513.8 404.4 506C404 509.1 403.7 512.3 403.7 515.6C403.7 531.9 409.6 546.8 419.2 558Z" fill="white"/>
<path d="M419.2 558C415.9 559.9 412.5 561.7 409 563.3C408.2 563.7 407.3 564.1 406.5 564.4C400.5 556 396.8 545.3 396.8 533.6C396.8 523.3 399.6 513.8 404.4 506C404 509.1 403.7 512.3 403.7 515.6C403.7 531.9 409.6 546.8 419.2 558Z" stroke="white" stroke-width="3" stroke-miterlimit="10" stroke-linecap="round" stroke-linejoin="round"/>
<path opacity="0.3" d="M483 538C483 538 483 559.1 463.5 571.1" stroke="#212121" stroke-width="6" stroke-miterlimit="10" stroke-linecap="round" stroke-linejoin="round"/>
<path opacity="0.3" d="M499.7 546.3C499.7 546.3 507.3 561.5 499.2 578.2" stroke="#212121" stroke-width="6" stroke-miterlimit="10" stroke-linecap="round" stroke-linejoin="round"/>
<path d="M430.8 550.5C424.2 555.4 416.9 559.8 409 563.4C397.1 568.9 384.9 572.4 372.9 574" stroke="#C73DB6" stroke-width="6" stroke-miterlimit="10" stroke-linecap="round" stroke-linejoin="round"/>
<path opacity="0.8" d="M513.5 515.6C513.5 515.6 526.9 516.9 529.7 519.7" stroke="#442753" stroke-width="4" stroke-miterlimit="10" stroke-linecap="round" stroke-linejoin="round"/>
<path d="M663 241C663 241 655.4 269 684.2 269C713 269 695 229 663 241Z" fill="#631EC9"/>
<defs>
<radialGradient id="paint0_radial_1331_523" cx="0" cy="0" r="1" gradientUnits="userSpaceOnUse" gradientTransform="translate(271.817 530.833) scale(71.3868 71.3868)">
<stop stop-color="#FFFF00"/>
<stop offset="1" stop-color="#FFFF00" stop-opacity="0"/>
</radialGradient>
</defs>
</svg>
