<svg viewBox="0 0 12 16" fill="none" xmlns="http://www.w3.org/2000/svg">
<path d="M4.99992 11C4.09326 11 3.29326 10.7667 2.59992 10.3C1.90659 9.83333 1.36659 9.2 0.979922 8.4C0.606589 7.6 0.419922 6.70667 0.419922 5.72C0.419922 4.66667 0.626589 3.73333 1.03992 2.92C1.45326 2.10667 2.02659 1.46667 2.75992 0.999999C3.50659 0.519999 4.35992 0.279999 5.31992 0.279999C6.06659 0.279999 6.72659 0.433332 7.29992 0.739999C7.88659 1.03333 8.34659 1.46667 8.67992 2.04V0.479999H11.9799V10.04C11.9799 11.1333 11.7133 12.0867 11.1799 12.9C10.6466 13.7133 9.89992 14.34 8.93992 14.78C7.97992 15.2333 6.85992 15.46 5.57992 15.46C4.47326 15.46 3.49992 15.2867 2.65992 14.94C1.83326 14.5933 1.09992 14.0933 0.459922 13.44L2.45992 11.36C2.84659 11.72 3.30659 12.02 3.83992 12.26C4.38659 12.5133 4.96659 12.64 5.57992 12.64C6.04659 12.64 6.47326 12.5533 6.85992 12.38C7.25992 12.2067 7.57992 11.9267 7.81992 11.54C8.05992 11.1667 8.17992 10.6667 8.17992 10.04V9.36C7.88659 9.90667 7.44659 10.32 6.85992 10.6C6.28659 10.8667 5.66659 11 4.99992 11ZM6.35992 8C6.74659 8 7.07992 7.91333 7.35992 7.74C7.65326 7.55333 7.92659 7.28 8.17992 6.92V5.04C7.99326 4.56 7.71326 4.18 7.33992 3.9C6.97992 3.62 6.59992 3.48 6.19992 3.48C5.66659 3.48 5.21326 3.71333 4.83992 4.18C4.47992 4.63333 4.29992 5.18 4.29992 5.82C4.29992 6.47333 4.49326 7 4.87992 7.4C5.26659 7.8 5.75992 8 6.35992 8Z" fill="url(#paint0_linear)"/>
<defs>
<linearGradient id="paint0_linear" x1="6.5" y1="-8" x2="6.5" y2="15" gradientUnits="userSpaceOnUse">
<stop stop-color="#B794F4"/>
<stop offset="1" stop-color="#ED64A6"/>
</linearGradient>
</defs>
</svg>
