<svg viewBox="0 0 58 63" fill="none" xmlns="http://www.w3.org/2000/svg">
    <path d="M27.65 51.24C23.6833 51.24 19.9967 50.61 16.59 49.35C13.23 48.09 10.3133 46.3167 7.84 44.03C5.36667 41.6967 3.43 38.9667 2.03 35.84C0.676667 32.7133 0 29.3067 0 25.62C0 21.8867 0.676667 18.48 2.03 15.4C3.43 12.2733 5.36667 9.56667 7.84 7.28C10.3133 4.94666 13.23 3.15 16.59 1.89C19.9967 0.63 23.6833 0 27.65 0C31.6633 0 35.35 0.63 38.71 1.89C42.07 3.15 44.9867 4.94666 47.46 7.28C49.9333 9.56667 51.8467 12.2733 53.2 15.4C54.6 18.48 55.3 21.8867 55.3 25.62C55.3 29.3067 54.6 32.7133 53.2 35.84C51.8467 38.9667 49.9333 41.6967 47.46 44.03C44.9867 46.3167 42.07 48.09 38.71 49.35C35.35 50.61 31.6633 51.24 27.65 51.24ZM43.68 62.51C41.3933 62.51 39.27 62.2767 37.31 61.81C35.35 61.39 33.4367 60.6667 31.57 59.64C29.75 58.6133 27.8367 57.19 25.83 55.37C23.8233 53.5967 21.5833 51.38 19.11 48.72L36.19 44.52C37.31 46.2467 38.2667 47.5767 39.06 48.51C39.8533 49.4433 40.6233 50.0967 41.37 50.47C42.1633 50.8433 43.05 51.03 44.03 51.03C46.4567 51.03 48.72 49.98 50.82 47.88L57.96 56.28C54.46 60.4333 49.7 62.51 43.68 62.51ZM27.65 37.87C29.19 37.87 30.6133 37.59 31.92 37.03C33.2733 36.47 34.44 35.6767 35.42 34.65C36.4467 33.5767 37.24 32.2933 37.8 30.8C38.36 29.26 38.64 27.5333 38.64 25.62C38.64 23.7067 38.36 22.0033 37.8 20.51C37.24 18.97 36.4467 17.6867 35.42 16.66C34.44 15.5867 33.2733 14.77 31.92 14.21C30.6133 13.65 29.19 13.37 27.65 13.37C26.11 13.37 24.6633 13.65 23.31 14.21C22.0033 14.77 20.8367 15.5867 19.81 16.66C18.83 17.6867 18.06 18.97 17.5 20.51C16.94 22.0033 16.66 23.7067 16.66 25.62C16.66 27.5333 16.94 29.26 17.5 30.8C18.06 32.2933 18.83 33.5767 19.81 34.65C20.8367 35.6767 22.0033 36.47 23.31 37.03C24.6633 37.59 26.11 37.87 27.65 37.87Z" fill="currentColor"/>
    </svg>
    