<svg viewBox="0 0 62 67" fill="none" xmlns="http://www.w3.org/2000/svg">
    <g filter="url(#filter0_di_917_5)">
        <path
            d="M29.65 51.24C25.6833 51.24 21.9967 50.61 18.59 49.35C15.23 48.09 12.3133 46.3167 9.84 44.03C7.36667 41.6967 5.43 38.9667 4.03 35.84C2.67667 32.7133 2 29.3067 2 25.62C2 21.8867 2.67667 18.48 4.03 15.4C5.43 12.2733 7.36667 9.56667 9.84 7.28C12.3133 4.94666 15.23 3.15 18.59 1.89C21.9967 0.63 25.6833 0 29.65 0C33.6633 0 37.35 0.63 40.71 1.89C44.07 3.15 46.9867 4.94666 49.46 7.28C51.9333 9.56667 53.8467 12.2733 55.2 15.4C56.6 18.48 57.3 21.8867 57.3 25.62C57.3 29.3067 56.6 32.7133 55.2 35.84C53.8467 38.9667 51.9333 41.6967 49.46 44.03C46.9867 46.3167 44.07 48.09 40.71 49.35C37.35 50.61 33.6633 51.24 29.65 51.24ZM45.68 62.51C43.3933 62.51 41.27 62.2767 39.31 61.81C37.35 61.39 35.4367 60.6667 33.57 59.64C31.75 58.6133 29.8367 57.19 27.83 55.37C25.8233 53.5967 23.5833 51.38 21.11 48.72L38.19 44.52C39.31 46.2467 40.2667 47.5767 41.06 48.51C41.8533 49.4433 42.6233 50.0967 43.37 50.47C44.1633 50.8433 45.05 51.03 46.03 51.03C48.4567 51.03 50.72 49.98 52.82 47.88L59.96 56.28C56.46 60.4333 51.7 62.51 45.68 62.51ZM29.65 37.87C31.19 37.87 32.6133 37.59 33.92 37.03C35.2733 36.47 36.44 35.6767 37.42 34.65C38.4467 33.5767 39.24 32.2933 39.8 30.8C40.36 29.26 40.64 27.5333 40.64 25.62C40.64 23.7067 40.36 22.0033 39.8 20.51C39.24 18.97 38.4467 17.6867 37.42 16.66C36.44 15.5867 35.2733 14.77 33.92 14.21C32.6133 13.65 31.19 13.37 29.65 13.37C28.11 13.37 26.6633 13.65 25.31 14.21C24.0033 14.77 22.8367 15.5867 21.81 16.66C20.83 17.6867 20.06 18.97 19.5 20.51C18.94 22.0033 18.66 23.7067 18.66 25.62C18.66 27.5333 18.94 29.26 19.5 30.8C20.06 32.2933 20.83 33.5767 21.81 34.65C22.8367 35.6767 24.0033 36.47 25.31 37.03C26.6633 37.59 28.11 37.87 29.65 37.87Z"
            fill="url(#paint0_linear_917_5)" />
    </g>
    <defs>
        <filter id="filter0_di_917_5" x="0" y="0" width="61.96" height="66.51"
            filterUnits="userSpaceOnUse" color-interpolation-filters="sRGB">
            <feFlood flood-opacity="0" result="BackgroundImageFix" />
            <feColorMatrix in="SourceAlpha" type="matrix"
                values="0 0 0 0 0 0 0 0 0 0 0 0 0 0 0 0 0 0 127 0" result="hardAlpha" />
            <feOffset dy="2" />
            <feGaussianBlur stdDeviation="1" />
            <feComposite in2="hardAlpha" operator="out" />
            <feColorMatrix type="matrix" values="0 0 0 0 0 0 0 0 0 0 0 0 0 0 0 0 0 0 0.1 0" />
            <feBlend mode="normal" in2="BackgroundImageFix" result="effect1_dropShadow_917_5" />
            <feBlend mode="normal" in="SourceGraphic" in2="effect1_dropShadow_917_5" result="shape" />
            <feColorMatrix in="SourceAlpha" type="matrix"
                values="0 0 0 0 0 0 0 0 0 0 0 0 0 0 0 0 0 0 127 0" result="hardAlpha" />
            <feOffset dy="1" />
            <feComposite in2="hardAlpha" operator="arithmetic" k2="-1" k3="1" />
            <feColorMatrix type="matrix" values="0 0 0 0 1 0 0 0 0 1 0 0 0 0 1 0 0 0 0.35 0" />
            <feBlend mode="normal" in2="shape" result="effect2_innerShadow_917_5" />
        </filter>
        <linearGradient id="paint0_linear_917_5" x1="30.98" y1="0" x2="30.98" y2="62.51"
            gradientUnits="userSpaceOnUse">
            <stop offset="0.34375" stop-color="#EA519B" />
            <stop offset="1" stop-color="#B130C6" />
        </linearGradient>
    </defs>
</svg>
     