<svg viewBox="0 0 222 156" fill="none" xmlns="http://www.w3.org/2000/svg">
  <path d="M86.2974 70.702C86.2974 93.0696 68.8365 111.202 47.2974 111.202C17.7974 111.202 0.797363 88.5696 0.797363 66.202C0.797363 43.8345 18.2583 25.702 39.7974 25.702C61.3365 25.702 86.2974 41.202 86.2974 70.702Z" fill="black"/>
  <ellipse cx="39.7974" cy="66.202" rx="39" ry="40.5" fill="white"/>
  <ellipse cx="20.7974" cy="73.202" rx="7" ry="7.5" fill="black"/>
  <path d="M218.797 44.3862C218.797 66.0997 201.234 83.702 179.569 83.702C149.897 83.702 132.797 61.7313 132.797 40.0178C132.797 18.3043 150.36 0.702026 172.025 0.702026C193.69 0.702026 218.797 15.7488 218.797 44.3862Z" fill="black"/>
  <ellipse cx="172.025" cy="40.0178" rx="39.2281" ry="39.3158" fill="white"/>
  <ellipse cx="153.797" cy="45.202" rx="7" ry="7.5" fill="black"/>
  <rect x="139.797" y="101.702" width="12" height="7" rx="1.4" fill="white"/>
  <rect x="177.182" y="102.257" width="9" height="7" rx="1.4" transform="rotate(5.9133 177.182 102.257)" fill="white"/>
  <rect x="48.7974" y="134.795" width="10" height="6.36218" rx="1.4" transform="rotate(-37.5363 48.7974 134.795)" fill="white"/>
  <rect x="58.5098" y="128.016" width="12.3555" height="7.4679" rx="1.4" transform="rotate(-37.5363 58.5098 128.016)" fill="white"/>
  <rect x="88.8438" y="112.993" width="12.4479" height="8.42261" rx="1.4" transform="rotate(-29.1523 88.8438 112.993)" fill="white"/>
  <path d="M32.2974 152.202C83.2974 116.702 137.297 98.2021 218.297 114.702" stroke="black" stroke-width="6" stroke-linecap="round"/>
  </svg>
  